<?xml version="1.0" encoding="utf-8"?>
<!-- Generator: Adobe Illustrator 23.0.3, SVG Export Plug-In . SVG Version: 6.00 Build 0)  -->
<svg width="32" height="32" version="1.1" id="katman_1" xmlns="http://www.w3.org/2000/svg" xmlns:xlink="http://www.w3.org/1999/xlink" x="0px" y="0px"
	 viewBox="0 0 32 32" style="enable-background:new 0 0 32 32;" xml:space="preserve">
<g>
	<rect fill="#212944" x="2" y="2" width="28" height="28" rx="4" ry="4"/>
	<path fill="#FFFFFF" d="M22.77,28.5H9.23c-3.05,0-5.53-2.47-5.53-5.53V9.03c0-3.05,2.47-5.53,5.53-5.53h13.55
		c3.05,0,5.53,2.47,5.53,5.53v13.95C28.3,26.03,25.83,28.5,22.77,28.5z"/>
	<path fill="#212944" d="M28.3,5.76c-0.69-0.83-1.47-1.59-2.31-2.26c-0.07-0.06-0.15-0.12-0.22-0.17c-0.07-0.05-0.14-0.11-0.21-0.16
		H6.44C6.37,3.22,6.3,3.28,6.23,3.33C6.16,3.38,6.08,3.44,6.01,3.5C5.17,4.17,4.39,4.93,3.7,5.76c-0.11,0.13-0.22,0.26-0.32,0.4
		v19.68c0.1,0.14,0.21,0.27,0.32,0.4c0.69,0.83,1.47,1.59,2.31,2.26c0.07,0.06,0.15,0.12,0.22,0.17s0.14,0.11,0.21,0.16h19.12
		c0.07-0.05,0.14-0.11,0.21-0.16s0.15-0.11,0.22-0.17c0.84-0.67,1.62-1.43,2.31-2.26c0.11-0.13,0.21-0.26,0.32-0.4V6.16
		C28.51,6.02,28.41,5.89,28.3,5.76z M25.95,18.98v0.92h-0.92v-0.92H25.95z M25.03,13.84v-0.92h0.92v0.92H25.03z M25.95,24.73v0.92
		h-0.92v-0.92H25.95z M25.95,7.89h-0.92V6.97h0.92V7.89z M14.66,12.2v2.46H12.2V12.2H14.66z M12.2,8.61V6.15h2.36v2.46H12.2z
		 M13.02,19.9v-0.92h0.92v0.92H13.02z M13.94,24.73v0.92h-0.92v-0.92H13.94z M19.9,18.98v0.92h-0.92v-0.92H19.9z M18.98,13.84v-0.92
		h0.92v0.92H18.98z M19.9,24.73v0.92h-0.92v-0.92H19.9z M20.72,8.61h-2.46V6.15h2.46V8.61z M6.25,20.72v-2.36h2.46v2.36H6.25z
		 M7.89,24.73v0.92H6.97v-0.92H7.89z M8.61,14.56H6.15V12.1h2.46V14.56z M8.71,8.61H6.25V6.15h2.46V8.61z"/>
</g>
</svg>
