<svg height="469.33333pt" viewBox="0 0 469.33333 469.33333" width="469.33333pt" xmlns="http://www.w3.org/2000/svg"><path d="m469.332031 234.667969c0 129.601562-105.0625 234.664062-234.664062 234.664062-129.605469 0-234.667969-105.0625-234.667969-234.664062 0-129.605469 105.0625-234.667969 234.667969-234.667969 129.601562 0 234.664062 105.0625 234.664062 234.667969zm0 0" fill="#ffc107"/><g fill="#fafafa"><path d="m208 341.332031c-3.796875 0-7.488281-1.34375-10.390625-3.839843-3.5625-3.027344-5.609375-7.488282-5.609375-12.160157v-181.332031c0-8.832031 7.167969-16 16-16s16 7.167969 16 16v161.214844c25.769531-7.292969 69.332031-24.832032 69.332031-59.882813 0-8.832031 7.167969-16 16-16s16 7.167969 16 16c0 76.800781-110.144531 95.0625-114.835937 95.808594-.832032.128906-1.664063.191406-2.496094.191406zm0 0"/><path d="m149.332031 229.332031c-6.355469 0-12.351562-3.796875-14.847656-10.066406-3.285156-8.195313.703125-17.515625 8.917969-20.800781l106.667968-42.667969c8.167969-3.261719 17.515626.703125 20.800782 8.917969 3.285156 8.191406-.707032 17.515625-8.917969 20.800781l-106.667969 42.664063c-1.960937.789062-3.96875 1.152343-5.953125 1.152343zm0 0"/><path d="m149.332031 282.667969c-6.355469 0-12.351562-3.796875-14.847656-10.070313-3.285156-8.191406.703125-17.515625 8.917969-20.800781l106.667968-42.667969c8.167969-3.261718 17.515626.707032 20.800782 8.917969 3.285156 8.191406-.707032 17.515625-8.917969 20.800781l-106.667969 42.667969c-1.960937.789063-3.96875 1.152344-5.953125 1.152344zm0 0"/></g></svg>