<?xml version="1.0" encoding="UTF-8"?><svg id="katman_2" xmlns="http://www.w3.org/2000/svg" xmlns:xlink="http://www.w3.org/1999/xlink" viewBox="0 0 32 32"><defs><style>.cls-1{fill:none;}.cls-2{clip-path:url(#clippath);}.cls-3{fill:url(#Adsız_degrade);}</style><clipPath id="clippath"><path class="cls-1" d="m10.1,20.25c-.08.04-.15.09-.22.16l-3.12,3.43s-.07.1-.08.16c-.01.06,0,.12.02.18.03.06.07.11.12.14.05.03.11.05.18.05h14.64c.09.01.18,0,.26-.04.08-.04.16-.09.22-.16l3.12-3.43s.07-.1.08-.16c.01-.06,0-.12-.02-.18-.03-.06-.07-.11-.12-.14-.05-.03-.11-.05-.18-.05h-14.64c-.09-.01-.18,0-.26.04m-3.1-6.34c-.06,0-.12.02-.18.05s-.09.08-.12.14-.03.12-.02.18c.01.06.04.12.08.16l3.12,3.44c.06.07.13.12.22.16.08.04.17.05.26.05h14.64c.06-.01.12-.03.18-.06.05-.03.09-.08.12-.14.03-.06.03-.12.02-.18-.01-.06-.04-.12-.08-.16l-3.12-3.44c-.06-.07-.13-.12-.22-.16s-.17-.05-.26-.05H7Zm3.36-6.29c-.09,0-.18.02-.26.05-.08.04-.15.09-.22.16l-3.12,3.43s-.07.1-.08.16c-.01.06,0,.12.02.18s.07.11.12.14c.05.03.11.05.18.05h14.64c.09.01.18,0,.26-.04.08-.04.16-.09.22-.16l3.12-3.43s.07-.1.08-.16c.01-.06,0-.12-.02-.18-.03-.06-.07-.11-.12-.14-.05-.03-.11-.05-.18-.05h-14.64Z"/></clipPath><linearGradient id="Adsız_degrade" x1="-245.5" y1="544.57" x2="-245.46" y2="544.57" gradientTransform="translate(140573.96 -311797.07) scale(572.59)" gradientUnits="userSpaceOnUse"><stop offset="0" stop-color="#9945ff"/><stop offset=".2" stop-color="#7962e7"/><stop offset="1" stop-color="#00d18c"/></linearGradient></defs><g id="katman_1"><g><rect x="4" y="4" width="24" height="24" rx="4" ry="4"/><g class="cls-2"><rect class="cls-3" x="3.47" y="3.47" width="25.05" height="25.05" transform="translate(-6.63 16) rotate(-45)"/></g></g></g></svg>