<svg xmlns="http://www.w3.org/2000/svg" viewBox="0 0 32 32">
  <g id="katman_2" data-name="katman 2">
    <g id="katman_1-2" data-name="katman 1">
      <path id="SVGID" fill="#0055d5" d="M16,0A16,16,0,1,1,0,16,16,16,0,0,1,16,0Z" />
      <path id="SVGID-2" data-name="SVGID" fill="#fff" d="M8.7,10.59S7,9.21,6.86,12.61C6.75,15.24,6.75,20.36,8,22.77c.51.91,1.2.63,2.48-.27,1.11-.83,5.14-4.54,6.85-6.17s5.16-6.3,5.88-3.12a14.12,14.12,0,0,1,.37,5.42c-.08.92-.47,1.61-2.25.37-1.34-.86-2.62-1.79-2.62-1.79s-.25-.44-.83.27-.69.72,0,1.15,4.46,3,5.89,3.41c1.18.34,1.85.33,1.88-2,0-1.84-.11-7.1-.78-9.34-.5-1.39-1.24-2-2.85-.46S15.37,16.73,12.61,19c-1.84,1.38-2.62,2.62-3.31.33-.49-1.74-1.12-7.15.87-6.12,1.25.6,1.87.59,1.38,1s-1.88,1.65-1.88,1.65a1.06,1.06,0,0,0-.23,1.11c.2.52.2.79,1.28-.23s1.89-1.8,1.89-1.8.17-.27.69.23a4.59,4.59,0,0,1,.59.65s.14.37.69-.28.91-1-.14-1.65S8.7,10.59,8.7,10.59Z" />
    </g>
  </g>
</svg>
