<?xml version="1.0" encoding="utf-8"?>
<!-- Generator: Adobe Illustrator 16.0.0, SVG Export Plug-In . SVG Version: 6.00 Build 0)  -->
<!DOCTYPE svg PUBLIC "-//W3C//DTD SVG 1.1//EN" "http://www.w3.org/Graphics/SVG/1.1/DTD/svg11.dtd">
<svg version="1.1" id="Layer_1" xmlns="http://www.w3.org/2000/svg" xmlns:xlink="http://www.w3.org/1999/xlink" x="0px" y="0px"
	 width="32px" height="32px" viewBox="0 0 32 32" enable-background="new 0 0 32 32" xml:space="preserve">
<g>
	<circle fill="#FFC107" cx="16" cy="16" r="16"/>
</g>
<g>
	<path fill="#FFFFFF" d="M15.622,11.179c0,0-4.295-4.056-4.44-4.298c-0.145-0.241-2.124-1.448-3.572,0.29
		c-1.449,1.738-0.049,3.283-0.049,3.283l4.249,3.976c0,0-2.221,2.253-3.042,2.978c-0.821,0.724-3.139,2.655-1.11,4.394
		s3.621,0,3.621,0l10.912-10.14c0,0,3.67-2.655,1.546-4.538c-2.125-1.884-4.008,0-4.008,0L15.622,11.179z"/>
	<path fill="#FFFFFF" d="M19.391,21.366c0,0-2.098-1.764,0-5.407c0,0,0.772-0.821,1.593,0c0.821,0.82,6.133,5.746,6.133,5.746
		s1.593,2.102-0.387,3.523c0,0-1.689,1.546-4.008-0.676L19.391,21.366z"/>
</g>
</svg>
