<?xml version="1.0" encoding="UTF-8"?><svg id="katman_2" xmlns="http://www.w3.org/2000/svg" viewBox="0 0 32 32"><defs><style>.cls-1{fill:#fff;}.cls-2{fill:#e31d1a;}.cls-2,.cls-3,.cls-4{fill-rule:evenodd;}.cls-3{fill:#f59f17;}.cls-4{fill:#040505;}</style></defs><g id="katman_1"><g id="svgg"><ellipse id="svg_1" class="cls-1" cx="16.08" cy="16.52" rx="15.59" ry="15.46"/><path id="path0" class="cls-2" d="m15.06.96c-.53.03-1.29.1-1.35.13-.03.01-.2.04-.38.06s-.43.08-.56.1-.33.08-.47.1c-.13.03-.33.08-.43.1-.1.03-.32.09-.46.13-.27.08-.99.32-1.11.38-.04.01-.08.03-.1.03s-.11.04-.2.08c-.24.1-.36.15-.48.2-.11.05-1.06.49-1.21.58-.09.05-.14,0,1.07,1.22.33.34.75.77.94.96q.38.4.5.37c.2-.09,1.39-.43,1.67-.49,1.09-.23,1.85-.32,3.26-.37.78-.03,2.37.1,3.26.28.55.1.62.13.75.15.06.01.28.08.47.13s.52.14.73.2.38.13.38.13c0,0,.15-.18.34-.4.19-.23.39-.47.46-.54.06-.08.2-.23.29-.34.24-.28.8-.88,1.02-1.1.1-.09.18-.19.18-.2,0-.04-.59-.33-1.36-.67-.32-.14-.39-.18-.43-.18-.03,0-.06-.01-.1-.04-.25-.14-1.81-.58-2.57-.72-1.29-.24-2.71-.34-4.09-.27m13.9,6.59c-.03.08-.1.38-.18.68-.15.61-.27,1.02-.42,1.54-.05.19-.14.45-.18.58s-.17.54-.29.9l-.22.66.06.13c.04.08.2.38.36.69.56,1.06.97,2.1,1.18,3.02.05.2.1.42.11.49.23.83.38,2.23.38,3.48,0,.38-.01.77-.04.86-.09.42-.11.52-.19.74-.05.14-.1.29-.13.35-.08.25-.5,1.03-.78,1.44-.46.67-.62.87-1.18,1.48-.15.16-.32.34-.34.38-.22.25-1.27,1.14-1.69,1.44-1.29.91-2.47,1.59-3.76,2.15-.45.19-1.46.58-1.54.58-.01,0-.08.03-.14.05-.14.06-.57.19-.64.19-.03,0-.08.01-.1.03-.05.03-.32.09-.94.23-.14.03-.36.08-.47.1-.11.03-.27.05-.33.05s-.28.03-.47.05c-.98.15-2.37.03-3.69-.32-.28-.08-.98-.29-1.06-.32-.04-.01-.15-.05-.24-.09-.89-.29-2.94-1.24-3.63-1.68-.08-.05-.14-.09-.15-.09s-.14-.08-.28-.18c-.14-.09-.27-.18-.27-.18-.08,0-1.25-.83-1.78-1.26-1.04-.85-1.43-1.21-2.27-2.16-.15-.16-.53-.68-.53-.71,0-.01-.08-.11-.15-.24-.09-.13-.17-.25-.18-.29-.01-.03-.05-.1-.08-.14-.61-.88-.75-1.78-.55-3.76.05-.58.27-1.84.38-2.22.19-.67.37-1.27.42-1.39.01-.04.05-.15.09-.25.08-.24.39-1.05.53-1.36.06-.13.2-.44.32-.68.27-.58.27-.61.01-1.3-.28-.73-.47-1.35-.57-1.73-.01-.05-.06-.23-.1-.38-.14-.48-.24-.92-.32-1.34-.05-.25-.04-.25-.34.19-.47.72-.99,1.67-1.26,2.28-.04.09-.1.25-.17.37-.05.11-.1.25-.11.32s-.04.11-.05.13-.04.04-.04.08c0,.03-.03.1-.05.16-.13.28-.33,1-.56,1.97-.17.67-.27,1.63-.34,2.93-.04.57.1,2.1.25,2.89.09.49.23,1.09.31,1.38.25.86.31,1.02.46,1.36.03.06.05.13.05.15s.01.06.04.1c.01.04.1.21.18.4.79,1.88,2.25,3.91,3.92,5.4.62.56.92.78,1.81,1.41.22.15.73.47,1.12.68.23.13,1.41.71,1.44.71.01,0,.09.03.45.19.2.09.92.33,1.54.52,2.58.77,5.98.8,8.64.05.15-.04.33-.09.39-.1.06-.01.15-.04.2-.06s.2-.06.36-.11c.14-.04.28-.09.31-.1.03-.01.13-.05.23-.09.09-.04.22-.08.28-.1.05-.03.24-.1.42-.18,1.58-.66,3.22-1.7,4.51-2.88.62-.57.94-.9,1.49-1.53.11-.14.64-.81.9-1.19.9-1.26,1.76-3.1,2.22-4.83.55-2.04.62-4.91.19-6.8-.01-.08-.06-.29-.1-.48s-.1-.42-.13-.49c-.22-.72-.27-.9-.32-1.01-.03-.08-.08-.19-.1-.25-.29-.77-.7-1.65-.98-2.16-.37-.63-.7-1.16-.9-1.43l-.17-.21-.05.11m-4.71,6.35c.05.01.14.01.19,0s.01-.01-.09-.01c-.11,0-.15,0-.1.01m-3.88,3.43s.09.01.13,0,0-.01-.06-.01c-.06,0-.1,0-.06.01"/><path id="path1" class="cls-3" d="m3.25.06c-.61.39-1.01,2.41-.83,4.1.01.18.05.5.06.74.06.73.15,1.45.27,2.01.03.13.06.34.08.47s.04.23.05.24c.01.01.04.1.06.2.09.45.19.86.32,1.33.04.15.09.32.1.38.1.39.31,1,.57,1.73.25.69.25.72-.01,1.3-.11.24-.25.54-.32.68-.14.3-.46,1.12-.53,1.36-.03.1-.06.21-.09.25-.05.11-.23.73-.42,1.39-.06.2-.2.97-.29,1.54-.08.48-.2,1.82-.18,1.84.01.01.13,0,.27-.03.52-.08.83-.1,1.57-.1.85,0,1.26.04,2,.2,1.27.28,2.78,1.14,3.82,2.2.22.21.19.21.32-.04.99-2.17,2.16-3.43,3.81-4.13,1.06-.44,2.52-.52,3.79-.19,1.71.44,3.14,1.77,3.91,3.6.06.14.13.29.14.33s.08.18.13.3.1.25.1.27c.01.01.13-.06.25-.19.81-.77,1.55-1.25,2.71-1.75.08-.04.15-.06.17-.06.03,0,.09-.03.14-.05.32-.14.94-.29,1.63-.39.66-.1,2.58-.06,2.88.06.09.04.06-.78-.06-1.94-.06-.54-.17-1.12-.27-1.49-.01-.06-.08-.29-.11-.49-.22-.92-.62-1.96-1.18-3.02-.17-.32-.33-.63-.36-.69l-.06-.13.22-.66c.13-.37.25-.77.29-.9s.11-.39.18-.58c.17-.53.27-.95.42-1.54.08-.3.15-.62.19-.71.05-.15.09-.32.18-.77.17-.8.24-1.29.31-1.77.03-.21.06-.54.09-.72.05-.42.05-1.97,0-2.27-.09-.56-.11-.66-.2-.91-.22-.67-.46-1.06-.64-1.03-.06.01-.2.03-.29.04-.15.03-.39.08-.85.2-1.06.29-2.79,1.39-3.72,2.35-.08.08-.15.14-.18.14s-.05.03-.05.05-.08.13-.18.21c-.22.2-.78.81-1.02,1.1-.09.11-.23.27-.29.34s-.28.32-.46.54c-.19.23-.34.4-.34.4,0,0-.18-.05-.38-.13-.2-.06-.53-.16-.73-.2-.19-.05-.39-.1-.47-.13-.11-.04-.19-.05-.75-.15-.89-.18-2.48-.3-3.26-.28-1.4.05-2.15.14-3.26.37-.29.06-1.46.4-1.67.49q-.1.04-.5-.37c-.18-.19-.6-.62-.94-.96-.99-1.01-1.15-1.17-1.12-1.2.01-.01.01-.03,0,0-.01.01-.14-.08-.27-.19-1.27-1.19-2.2-1.88-3.11-2.3C4.24.06,3.45-.09,3.25.06m11.99.88c.05.01.13.01.18,0,.04-.01,0-.01-.1-.01-.09,0-.13.01-.08.01m-5.14,9.74c1.03.28,1.78,1.68,1.13,2.17-.36.27-1.62.39-2.57.25-.81-.11-.93-1.3-.19-1.97.5-.43,1.08-.59,1.63-.45m12.39,0c1.11.29,1.68,1.54,1.02,2.22-.39.4-2.61.3-3.02-.13-.15-.16-.24-.49-.18-.66.01-.05.04-.11.04-.16,0-.13.18-.44.38-.66.52-.57,1.12-.77,1.76-.62m2.1,3.37c.1.35.11.45.11,1v.56l-.23.21c-.47.43-.95.69-1.81.98-.47.16-.61.2-1.4.39-.51.11-1.39.18-1.83.11l-.17-.03.03-.2c.05-.47.47-.95,1.34-1.5.94-.62,1.49-.92,2.53-1.39.37-.16.95-.32,1.22-.3h.17l.04.16m-16.31-.06c.29.06.5.13.73.23.39.18.95.45,1.35.68.24.14.52.29.62.34,1.21.66,1.95,1.35,1.95,1.84,0,.78-3.98-.13-5.21-1.19-.38-.33-.45-1.1-.17-1.78.09-.25.11-.25.73-.13M.14,14.42c0,.06.01.09.01.06.01-.04.01-.09,0-.13-.01-.04-.01-.01-.01.06m31.76.45c0,.08.01.1.01.06.01-.04.01-.1,0-.14,0-.03-.01,0-.01.08M0,15.92c0,.06.01.09.01.06.01-.04.01-.09,0-.13,0-.03-.01,0-.01.06m31.98.47c0,.23,0,.32.01.2s.01-.3,0-.42-.01-.01-.01.21m-31.98.67c0,.06.01.09.01.06.01-.04.01-.09,0-.13,0-.03-.01,0-.01.06m31.9.98c0,.08.01.1.01.06.01-.04.01-.1,0-.14,0-.04-.01,0-.01.08m-2.11,1.83c0,.09.01.11.01.08.01-.04.01-.11,0-.15,0-.04-.01-.01-.01.08m-24.95,4.92l.11.11.11.1-.1-.11c-.09-.1-.13-.13-.13-.1m21.91.52l-.1.11.1-.11c.08-.05.13-.1.13-.1,0-.03-.03,0-.13.1m-22.51,1.68c.08.08.14.14.15.14s-.04-.06-.11-.14c-.08-.08-.14-.14-.15-.14s.04.06.11.14m.87.86c.08.08.14.14.15.14s-.04-.06-.11-.14c-.08-.08-.14-.14-.15-.14s.04.06.11.14m21.58.18l-.1.11.1-.11c.08-.05.13-.1.13-.1,0-.03-.04,0-.13.1m-10.73,1.91s.1.01.14,0,0-.01-.08-.01c-.08,0-.1,0-.06.01m-.85,2.06s.09.01.13,0,0-.01-.06-.01-.09,0-.06.01"/><path id="path2" class="cls-4" d="m7.63,13.94c-.19.25-.32,1.07-.22,1.43.01.06.04.16.05.21.04.19.56.58,1.16.88,1.2.61,3.56,1.07,4.15.82l.17-.08-.03-.19c-.05-.44-.46-.88-1.41-1.49-.18-.11-.34-.21-.36-.21s-.19-.1-.39-.21c-.78-.45-1.62-.87-2.04-1.01-.45-.13-1.03-.21-1.08-.15m16.36-.01c-.65.14-1.54.54-2.66,1.21-1.46.87-1.99,1.39-2.05,1.97l-.03.19.41.03c1.57.1,3.84-.62,4.82-1.51l.22-.2v-.56c0-.53-.01-.63-.1-1l-.04-.16h-.24c-.15.01-.29.03-.33.04m-9.17,5.52c-.46.14-.66.74-.52,1.58.1.64.88,1.35,1.81,1.64.05.01.06.08.06.53v.52l-.11.06c-.06.04-.17.14-.23.24-.06.09-.11.18-.13.18-.05.06-1.32.01-1.83-.08-.28-.05-1.09-.08-1.13-.04-.01.01.03.08.08.14.15.16.23.34.29.64l.06.27h.14q.15,0,.25.34c.08.23.27.67.36.77l.06.08.06-.14c.06-.13.06-.23.06-.83v-.69h.18c.1.03.32.04.5.06,1.02.1,2.28.1,3.17,0,.14-.01.38-.04.52-.05l.27-.03v.66c-.01.63-.01.67.06.81.08.15.15.21.15.15,0-.03.03-.09.05-.15.03-.06.11-.29.2-.5l.15-.39.18-.05.18-.05.11-.39c.06-.21.11-.45.13-.52l.03-.13h-.51c-.42,0-.53.01-.65.06-.2.09-.48.11-1.04.09l-.5-.03-.15-.2c-.09-.11-.19-.21-.24-.23l-.09-.03v-.52s.03-.52.03-.52l.14-.06c1.06-.49,1.37-.95,1.39-2.03,0-.82-.1-1.01-.65-1.16-.29-.08-2.65-.08-2.89,0m.09,5.77c.04.15.09.21.31.3l.18.08.11-.13c.2-.21.36-.15.59.23.14.24.32.2.65-.18.15-.18.14-.16.33-.03l.15.11.13-.09c.15-.1.19-.15.22-.3l.03-.11h-2.72l.04.11"/></g></g></svg>